<svg xmlns="http://www.w3.org/2000/svg" width="19.937" height="22.774" viewBox="0 0 19.937 22.774">
  <g id="brand-awareness" transform="translate(-31.897 0)">
    <path id="Caminho_3899" data-name="Caminho 3899" d="M90.755,136.142a4.239,4.239,0,1,0-5.193,0,7.827,7.827,0,0,0-5.217,7.369,2.1,2.1,0,0,0,2.1,2.1H93.876a2.1,2.1,0,0,0,2.1-2.1A7.827,7.827,0,0,0,90.755,136.142Zm-5.5-3.35a2.906,2.906,0,1,1,2.906,2.906A2.909,2.909,0,0,1,85.253,132.792Zm8.623,11.482H82.441a.762.762,0,0,1-.762-.762,6.479,6.479,0,1,1,12.958,0A.762.762,0,0,1,93.876,144.274Z" transform="translate(-46.293 -122.834)" fill="#9eb5d0"/>
    <path id="Caminho_3900" data-name="Caminho 3900" d="M109.113,74.6a.672.672,0,0,0,.881-.337,7.1,7.1,0,1,0-13.582-2.892,7.052,7.052,0,0,0,.615,2.892.667.667,0,1,0,1.219-.544,5.765,5.765,0,1,1,10.53,0A.667.667,0,0,0,109.113,74.6Z" transform="translate(-61.645 -61.409)" fill="#9eb5d0"/>
    <path id="Caminho_3901" data-name="Caminho 3901" d="M41.866,0a10,10,0,0,0-8.578,15.013.667.667,0,0,0,1.148-.679,8.623,8.623,0,1,1,14.859,0,.667.667,0,0,0,1.149.679A10,10,0,0,0,41.866,0Z" transform="translate(0 0)" fill="#9eb5d0"/>
  </g>
</svg>
