<svg id="Grupo_16450" data-name="Grupo 16450" xmlns="http://www.w3.org/2000/svg" width="21.471" height="21.471" viewBox="0 0 21.471 21.471">
  <path id="Caminho_3902" data-name="Caminho 3902" d="M19.637,5.067H17.259A3.834,3.834,0,0,0,13.5,2H11.969A3.834,3.834,0,0,0,8.211,5.068H5.834A3.834,3.834,0,0,0,2,8.9v4.6a3.834,3.834,0,0,0,1.534,3.067v3.067a3.834,3.834,0,0,0,3.834,3.834H18.1a3.834,3.834,0,0,0,3.834-3.834V16.569A3.834,3.834,0,0,0,23.471,13.5V8.9A3.834,3.834,0,0,0,19.637,5.067ZM11.969,3.534H13.5a2.3,2.3,0,0,1,2.162,1.534H9.806a2.3,2.3,0,0,1,2.162-1.534Zm8.435,13.8v2.3a2.3,2.3,0,0,1-2.3,2.3H7.368a2.3,2.3,0,0,1-2.3-2.3v-2.3H9.775a3.067,3.067,0,0,0,5.92,0Zm-9.2-.767A1.534,1.534,0,1,1,12.735,18.1,1.534,1.534,0,0,1,11.2,16.569ZM21.937,13.5a2.3,2.3,0,0,1-2.3,2.3H15.7a3.067,3.067,0,0,0-5.92,0H5.834a2.3,2.3,0,0,1-2.3-2.3V8.9a2.3,2.3,0,0,1,2.3-2.3h13.8a2.3,2.3,0,0,1,2.3,2.3Z" transform="translate(-2 -2)" fill="#9eb5d0"/>
</svg>
