<svg id="Grupo_16451" data-name="Grupo 16451" xmlns="http://www.w3.org/2000/svg" width="17.727" height="24.174" viewBox="0 0 17.727 24.174">
  <g id="Grupo_16451-2" data-name="Grupo 16451">
    <path id="Caminho_3903" data-name="Caminho 3903" d="M45.864,37.835h0a7.252,7.252,0,0,0-7.252,7.252v2.556a3.086,3.086,0,0,1-.9,2.175l-.028.029a2.418,2.418,0,0,0,1.732,4.1h2.5a4.03,4.03,0,0,0,7.9,0h2.5a2.418,2.418,0,0,0,2.417-2.417h0a2.414,2.414,0,0,0-.708-1.709h0a3.085,3.085,0,0,1-.9-2.181V45.087a7.252,7.252,0,0,0-7.252-7.252Zm2.28,16.116H43.584a2.418,2.418,0,0,0,4.559,0Zm-2.28-14.5a5.641,5.641,0,0,0-5.641,5.641v2.556a4.7,4.7,0,0,1-1.355,3.3l-.02.021a.805.805,0,0,0,0,1.136l0,0a.8.8,0,0,0,.57.236H52.31a.806.806,0,0,0,.57-1.375h0A4.7,4.7,0,0,1,51.5,47.643V45.087a5.64,5.64,0,0,0-5.641-5.641Zm-.807-3.988,0-.082a.806.806,0,0,1,1.61,0l0,.082a.806.806,0,0,0,1.611-.041,2.417,2.417,0,1,0-4.835,0,.806.806,0,0,0,1.611.041Z" transform="translate(-37 -33)" fill="#9eb5d0" fill-rule="evenodd"/>
  </g>
</svg>
