<svg xmlns="http://www.w3.org/2000/svg" width="178.751" height="40.6" viewBox="0 0 178.751 40.6">
  <g id="Grupo_80" data-name="Grupo 80" transform="translate(-104.307 -514)">
    <path id="Caminho_14" data-name="Caminho 14" d="M8.8-23.713V-.98h9.1v6.1H2.307V-23.713Zm15.489,4.8a3.624,3.624,0,0,1-2.673-1.061,3.656,3.656,0,0,1-1.082-2.694,3.607,3.607,0,0,1,1.082-2.653,3.624,3.624,0,0,1,2.673-1.061,3.744,3.744,0,0,1,2.735,1.061A3.607,3.607,0,0,1,28.1-22.673a3.656,3.656,0,0,1-1.082,2.694A3.744,3.744,0,0,1,24.286-18.918Zm3.061,24.04h-6.1V-16.183h6.1ZM44.754-16.693a8.04,8.04,0,0,1,5.918,2.2,7.974,7.974,0,0,1,2.245,5.9V5.122h-6.1V-6.53a4.323,4.323,0,0,0-1.122-3.1A3.992,3.992,0,0,0,42.714-10.8,4.345,4.345,0,0,0,39.53-9.612a4.16,4.16,0,0,0-1.245,3.163V5.122h-6.1V-16.183h6.1v2.326A8.127,8.127,0,0,1,44.754-16.693ZM69.019-5.612,77.957,5.122H70.243L63.468-3.061V5.122h-6.1v-30.1h6.1V-8.326l6.51-7.857h7.694Zm31.1.163a8.721,8.721,0,0,1-.163,1.877H83.651A5.274,5.274,0,0,0,85.518-.735,5.16,5.16,0,0,0,88.752.306a6.024,6.024,0,0,0,2.694-.592,4.138,4.138,0,0,0,1.775-1.531h6.469a10.72,10.72,0,0,1-4.143,5.388A11.98,11.98,0,0,1,88.63,5.632a11.263,11.263,0,0,1-8.224-3.2A10.734,10.734,0,0,1,77.12-5.551a10.71,10.71,0,0,1,3.286-7.959,11.3,11.3,0,0,1,8.224-3.184,11.365,11.365,0,0,1,8.2,3.184A10.831,10.831,0,0,1,100.119-5.449Zm-8.387-4.959a4.943,4.943,0,0,0-3.1-1.02,4.89,4.89,0,0,0-3.081,1.01,5.45,5.45,0,0,0-1.857,2.786h9.857A4.98,4.98,0,0,0,91.732-10.408Zm27.427-3.449V-24.979h6.1v30.1h-6.1V2.775a8.537,8.537,0,0,1-6.449,2.857,9.532,9.532,0,0,1-7.326-3.2,11.313,11.313,0,0,1-2.959-7.979,11.286,11.286,0,0,1,2.959-7.959,9.56,9.56,0,0,1,7.326-3.184A8.378,8.378,0,0,1,119.159-13.857ZM113.935-.265a5.1,5.1,0,0,0,3.755-1.51,5.2,5.2,0,0,0,1.469-3.775,5.091,5.091,0,0,0-1.49-3.755,5.066,5.066,0,0,0-3.735-1.49,4.973,4.973,0,0,0-3.694,1.49,5.091,5.091,0,0,0-1.49,3.755,5.116,5.116,0,0,0,1.49,3.775A4.939,4.939,0,0,0,113.935-.265Z" transform="translate(102 544.701)" fill="#fff"/>
    <path id="Subtração_2" data-name="Subtração 2" d="M38.57,35.824H8a8.009,8.009,0,0,1-8-8V8A8.009,8.009,0,0,1,8,0H38.57a8.009,8.009,0,0,1,8,8V27.823A8.009,8.009,0,0,1,38.57,35.824ZM27.663,17.138a2.928,2.928,0,0,1,2.178.851,3.173,3.173,0,0,1,.821,2.267v8.519h4.461V18.749a5.851,5.851,0,0,0-1.642-4.311,5.9,5.9,0,0,0-4.326-1.612,5.967,5.967,0,0,0-4.73,2.074V13.2h-4.46V28.775h4.46V20.316A3.055,3.055,0,0,1,25.336,18,3.19,3.19,0,0,1,27.663,17.138ZM11.969,13.2V28.775h4.46V13.2Zm2.223-7.46a2.675,2.675,0,0,0-2.745,2.715A2.676,2.676,0,0,0,14.192,11.2a2.749,2.749,0,0,0,2-.776,2.681,2.681,0,0,0,.79-1.969,2.648,2.648,0,0,0-.79-1.939A2.752,2.752,0,0,0,14.192,5.739Z" transform="translate(236.488 518.776)" fill="#fff"/>
    <g id="Retângulo_6" data-name="Retângulo 6" transform="translate(252.011 514)" fill="none" stroke="#fff" stroke-width="3">
      <rect width="16.718" height="11.941" rx="3" stroke="none"/>
      <rect x="1.5" y="1.5" width="13.718" height="8.941" rx="1.5" fill="none"/>
    </g>
  </g>
</svg>
