<svg xmlns="http://www.w3.org/2000/svg" width="12.484" height="12.048" viewBox="0 0 12.484 12.048">
  <g id="like_2_" data-name="like (2)" transform="translate(0 -8.552)">
    <g id="Grupo_16457" data-name="Grupo 16457" transform="translate(0 8.552)">
      <g id="Grupo_16456" data-name="Grupo 16456" transform="translate(0 0)">
        <path id="Caminho_3908" data-name="Caminho 3908" d="M10.724,12.48H8.153V10.717A2.115,2.115,0,0,0,7.4,8.894a2.33,2.33,0,0,0-1.9-.237.438.438,0,0,0-.306.418V11.2c0,1.574-1.852,2.122-1.931,2.142-.005,0-.01,0-.013.005l-.211.066a1.322,1.322,0,0,0-.912-.364h-.8A1.327,1.327,0,0,0,0,14.378v4.575a1.331,1.331,0,0,0,1.33,1.33h.8a1.316,1.316,0,0,0,.884-.339,1.832,1.832,0,0,0,1.4.657H9.626a1.972,1.972,0,0,0,2.15-1.77l.647-4.063.036-.219a2.1,2.1,0,0,0,.025-.311A1.765,1.765,0,0,0,10.724,12.48ZM2.588,18.955a.455.455,0,0,1-.456.456h-.8a.455.455,0,0,1-.456-.456V14.378a.455.455,0,0,1,.456-.456h.8a.455.455,0,0,1,.456.456Zm9.007-4.542L10.912,18.7c0,.005,0,.01,0,.015-.031.25-.122,1.011-1.284,1.011H4.419a.96.96,0,0,1-.958-.958V14.378a1.359,1.359,0,0,0-.013-.176l.064-.02c.186-.053,2.56-.782,2.56-2.983V9.434a1.2,1.2,0,0,1,.815.166,1.328,1.328,0,0,1,.392,1.118v2.2a.438.438,0,0,0,.438.438h3.006a.884.884,0,0,1,.884.884A1.354,1.354,0,0,1,11.595,14.413Z" transform="translate(0 -8.552)" fill="#6e86a8"/>
      </g>
    </g>
  </g>
</svg>
