<svg xmlns="http://www.w3.org/2000/svg" width="21.055" height="21.055" viewBox="0 0 21.055 21.055">
  <path id="messenger_2_" data-name="messenger (2)" d="M10.527,0A10.529,10.529,0,0,0,1.4,15.768L.04,19.98a.822.822,0,0,0,1.035,1.035l4.212-1.356A10.528,10.528,0,1,0,10.527,0Zm0,19.41a8.857,8.857,0,0,1-4.7-1.346.823.823,0,0,0-.688-.085L2.1,18.958l.979-3.041a.823.823,0,0,0-.086-.688,8.883,8.883,0,1,1,7.537,4.181Zm1.028-8.883A1.028,1.028,0,1,1,10.527,9.5,1.028,1.028,0,0,1,11.556,10.527Zm4.112,0A1.028,1.028,0,1,1,14.64,9.5,1.028,1.028,0,0,1,15.668,10.527Zm-8.225,0A1.028,1.028,0,1,1,6.415,9.5,1.028,1.028,0,0,1,7.443,10.527Zm0,0" fill="#9aa9bf"/>
</svg>
