<svg xmlns="http://www.w3.org/2000/svg" width="12.172" height="12.172" viewBox="0 0 12.172 12.172">
  <g id="share" transform="translate(-0.004)">
    <path id="Caminho_3909" data-name="Caminho 3909" d="M10.781,95.483H1.4A1.4,1.4,0,0,1,0,94.088V86.734A1.4,1.4,0,0,1,1.4,85.34H3.174a.38.38,0,0,1,0,.761H1.4a.635.635,0,0,0-.634.634v7.354a.635.635,0,0,0,.634.634h9.382a.635.635,0,0,0,.634-.634V89.777a.38.38,0,1,1,.761,0v4.311A1.4,1.4,0,0,1,10.781,95.483Zm0,0" transform="translate(0 -83.311)" fill="#6e86a8"/>
    <path id="Caminho_3910" data-name="Caminho 3910" d="M128.384,8.108a.335.335,0,0,1-.084-.01.375.375,0,0,1-.3-.364V6.974a4.951,4.951,0,0,1,4.945-4.945h.127V.38a.38.38,0,0,1,.654-.264l3.3,3.423a.38.38,0,0,1,0,.527l-3.3,3.423a.38.38,0,0,1-.654-.264V5.579h-.6a4.161,4.161,0,0,0-3.742,2.313A.392.392,0,0,1,128.384,8.108Zm4.565-5.319A4.191,4.191,0,0,0,128.8,6.451a4.917,4.917,0,0,1,3.676-1.633h.983a.38.38,0,0,1,.38.38V6.284l2.388-2.48-2.388-2.48V2.409a.38.38,0,0,1-.38.38Zm0,0" transform="translate(-124.957 0)" fill="#6e86a8"/>
  </g>
</svg>
